<?xml version="1.0" encoding="UTF-8"?>
<svg id="Layer_1" xmlns="http://www.w3.org/2000/svg" version="1.1" viewBox="0 0 57.1 49.5">
  <!-- Generator: Adobe Illustrator 30.6.0, SVG Export Plug-In . SVG Version: 2.1.4 Build 109)  -->
  <defs>
    <style>
      .st0 {
        fill: #1d4ed8;
        fill-rule: evenodd;
      }
    </style>
  </defs>
  <path class="st0" d="M2.5,15.1c0-2,1.6-3.6,3.6-3.6h44.9c2,0,3.6,1.6,3.6,3.6v8c0,2-1.6,3.6-3.6,3.6H6.1c-2,0-3.6-1.6-3.6-3.6v-8ZM35.1,9h-13.2v-1.6c0-.4.3-.7.7-.7h11.9c.4,0,.7.3.7.7v1.6h-.1ZM17.7,7.4v1.6h1.8v-1.6c0-1.7,1.4-3.2,3.2-3.2h11.9c1.7,0,3.2,1.4,3.2,3.2v1.6h1.8v-1.6c0-2.7-2.2-4.9-4.9-4.9h-11.9c-2.7,0-4.9,2.2-4.9,4.9h-.2ZM25.7,29.2h5.7v1.3c0,.7-.6,1.3-1.3,1.3h-3.1c-.7,0-1.3-.6-1.3-1.3,0,0,0-1.3,0-1.3ZM51,47c1.1,0,2-.9,2-2v-16.2c-.6.2-1.3.3-2,.3h-17.1v1.3c0,2.1-1.7,3.8-3.8,3.8h-3.1c-2.1,0-3.8-1.7-3.8-3.8v-1.3H6.1c-.7,0-1.3-.1-2-.3v16.2c0,1.1.9,2,2,2h44.9ZM1.6,45c0,2.5,2,4.5,4.5,4.5h44.9c2.5,0,4.5-2,4.5-4.5v-17.8c1-1.1,1.6-2.5,1.6-4.1v-8c0-3.3-2.7-6.1-6.1-6.1h-9.1v-1.6c0-4.1-3.3-7.4-7.4-7.4h-11.9c-4.1,0-7.4,3.3-7.4,7.4v1.6H6.1c-3.3,0-6.1,2.7-6.1,6.1v8c0,1.6.6,3,1.6,4.1v17.8Z"/>
</svg>