<?xml version="1.0" encoding="UTF-8"?>
<svg id="Layer_1" xmlns="http://www.w3.org/2000/svg" version="1.1" viewBox="0 0 132.1 82.7">
  <!-- Generator: Adobe Illustrator 30.6.0, SVG Export Plug-In . SVG Version: 2.1.4 Build 109)  -->
  <defs>
    <style>
      .st0 {
        fill: #1d4ed8;
      }
    </style>
  </defs>
  <path class="st0" d="M131.5,36.1L112.2,2.9c-1.6-2.8-5.2-3.7-7.8-2.1l-9.4,5.4c-1.3.7-2.2,2.1-2.6,3.5s0,3.1.6,4.4l1,1.8-2.8,1.3c-1.3.6-2.8.9-4.6.6-2.5-.3-4.9-.7-7.2-1.2-2.9-.6-6-1.2-9.4-1.5h0c-4-.3-5.9-.3-9.6,3.5l-2.5,2.5c-9.4-1-16-3.5-19.1-5.2l1-1.8c.7-1.3,1-2.9.6-4.4s-1.3-2.8-2.6-3.5L28.3,1c-2.8-1.6-6.3-.6-7.8,2.1L.8,36.1c-1.6,2.8-.6,6.3,2.1,7.8l9.4,5.4c.9.6,1.9.7,2.8.7,2.1,0,4-1,5-2.9l.7-1.3c1.6,2.9,3.8,6.2,6.2,8.1l-2.2,3.7c-1.9,3.4-.7,7.7,2.5,9.6,1,.6,2.4.9,3.5.9s1.6,0,2.5-.4v.7c.4,1.8,1.6,3.2,3.2,4.3,1,.6,2.4.9,3.5.9s1.6,0,2.5-.4v.7c.4,1.8,1.6,3.2,3.2,4.3,1,.6,2.4.9,3.5.9s2.9-.4,4.1-1.3c.6,1.5,1.6,2.6,2.9,3.5,1,.6,2.2.9,3.5.9s1.2,0,1.8-.3c1.8-.4,3.2-1.6,4.3-3.2v-.3l6.3,3.5c1,.6,2.2.9,3.5.9s1.2,0,1.8-.3c1.8-.4,3.2-1.6,4.3-3.2.7-1.3,1-2.6.9-4.1,1.2.3,2.5.3,3.7,0,1.8-.4,3.2-1.6,4.3-3.2.7-1.3,1-2.6.9-4.1,2.9.9,6.3-.4,7.9-3.2.7-1.3,1-2.6.9-4.1,1.2.3,2.5.3,3.7,0,1.8-.4,3.2-1.6,4.3-3.2.9-1.6,1.2-3.5.7-5.3,0-.6-.4-1.2-.6-1.6,1-1.2,2.2-2.6,3.1-4l.4.7c1,1.8,2.9,2.9,5,2.9s1.9-.3,2.8-.7l9.4-5.4c1.3-.7,2.2-2.1,2.6-3.5s0-3.1-.6-4.4h0v.4h.1ZM17.4,45.9c-.7,1.2-2.2,1.6-3.4.9l-9.4-5.4c-1.2-.7-1.6-2.2-.9-3.4L22.9,4.3c.4-.9,1.3-1.3,2.2-1.3s.9,0,1.3.3l9.4,5.4c.6.3,1,.9,1.2,1.5.1.6,0,1.3-.3,1.9l-19.3,33.4s0,.3,0,.3ZM29.2,64.7c-1.8-1-2.4-3.4-1.3-5.2l5.4-9.3c1-1.8,3.4-2.4,5.2-1.3,1.8,1,2.4,3.2,1.3,5.2l-5.4,9.4c-1,1.8-3.4,2.4-5.2,1.3h0ZM38.5,70.1c-.9-.4-1.5-1.3-1.8-2.2-.3-1,0-1.9.3-2.8l7.4-12.8c.4-.9,1.3-1.5,2.2-1.8,1-.3,1.9,0,2.8.3,1.8,1,2.4,3.2,1.3,5l-7.4,12.8c-1,1.8-3.4,2.4-5.2,1.3h.3,0ZM47.7,75.4c-.9-.4-1.5-1.3-1.8-2.2-.3-1,0-1.9.3-2.8l8.4-14.4c.4-.9,1.3-1.5,2.2-1.8,1-.3,1.9,0,2.8.3.9.4,1.5,1.3,1.8,2.2.3,1,0,1.9-.3,2.8l-8.4,14.4c-1,1.8-3.4,2.4-5.2,1.3h.1ZM61.1,78.8c-1,.3-1.9,0-2.8-.3-1.8-1-2.4-3.2-1.3-5l5.4-9.4c1-1.8,3.4-2.4,5.2-1.3,1.8,1,2.4,3.4,1.3,5.2l-5.4,9.3c-.4.9-1.3,1.5-2.2,1.8h-.1ZM105.7,55.9c-.4.9-1.3,1.5-2.2,1.8-1,.3-1.9,0-2.8-.3l-13.1-7.5c-.7-.4-1.8,0-2.2.6s0,1.8.6,2.2l9.7,5.6h0c1.6,1,2.2,3.4,1.2,5-1,1.8-3.4,2.4-5.2,1.3l-9.7-5.6c-.7-.4-1.8,0-2.2.6s0,1.8.6,2.2l6.2,3.5h0c1.8,1,2.4,3.4,1.3,5.2-.4.9-1.3,1.5-2.2,1.8-1,.3-1.9,0-2.8-.3l-6.2-3.5c-.7-.4-1.8,0-2.2.6s0,1.8.6,2.2l2.8,1.6h0c1.8,1,2.4,3.4,1.3,5.2-.4.9-1.3,1.5-2.2,1.8-1,.3-1.9,0-2.8-.3l-6.2-3.5,3.5-6.2c1.9-3.4.7-7.7-2.5-9.6-1.3-.7-2.8-1-4.3-.9v-3.1c-.4-1.8-1.6-3.2-3.2-4.3-1.6-.9-3.5-1.2-5.3-.7-.7,0-1.3.4-1.9.9-.6-1.6-1.6-2.9-3.1-3.8-1.6-.9-3.5-1.2-5.3-.7-1.2.3-2.2,1-3.1,1.8-.6-1.3-1.5-2.4-2.8-3.1-3.4-1.9-7.7-.7-9.6,2.5l-1.6,2.8c-2.4-2.2-4.7-5.9-5.9-8.7l13.8-24.1c3.1,1.5,9.1,4,18,5.2l-5.2,5.2c-.9.9-1.3,2.2-1.2,3.5s.9,2.5,1.9,3.1c4.7,3.1,9.4,2.9,12.8-.4l4.6-4.6c2.5,3.1,7.7,8.1,17.4,8.8l19.4,11.2c.9.4,1.5,1.3,1.8,2.2s0,1.9-.4,2.8h0v.3h-.1ZM106.3,48.2s-.3,0-.4-.3l-19.7-11.5s-.4-.1-.7-.1c-9.7-.6-14.3-6.2-16.3-8.7l-.3-.3c-.3-.3-.7-.6-1.2-.6s-.9,0-1.2.4l-5.7,5.7c-3.1,3.1-7.1,1-8.7,0-.3-.1-.4-.4-.4-.7s0-.6.3-.9l10.6-10.6c2.9-2.9,3.7-2.8,7.1-2.6h0c3.2.3,6.2.9,9.1,1.5,2.4.4,4.9.9,7.5,1.3,2.4.3,4.4,0,6.3-.9l2.9-1.3,14.4,25.2c-1.3,1.9-2.6,3.5-3.5,4.6h0ZM128.8,39.7c0,.6-.6,1.2-1.2,1.5l-9.4,5.4c-.6.3-1.3.4-1.9.3-.6-.1-1.2-.6-1.5-1.2l-19.3-33.4c-.3-.6-.4-1.3-.3-1.9,0-.6.6-1.2,1.2-1.5l9.4-5.4c1.2-.7,2.8-.3,3.4.9l19.3,33.4c.3.6.4,1.3.3,1.9h0Z"/>
</svg>