<?xml version="1.0" encoding="UTF-8"?>
<svg id="Layer_1" xmlns="http://www.w3.org/2000/svg" version="1.1" viewBox="0 0 72 84.4">
  <!-- Generator: Adobe Illustrator 30.6.0, SVG Export Plug-In . SVG Version: 2.1.4 Build 109)  -->
  <defs>
    <style>
      .st0 {
        fill: #1d4ed8;
      }
    </style>
  </defs>
  <path class="st0" d="M46.2,41.5c7-3.7,11.8-11,11.8-19.5C58,9.9,48.1,0,36,0S14,9.9,14,22s4.8,15.8,11.8,19.5C10.9,45.9,0,59.7,0,76s.9,2,2,2,2-.9,2-2c0-17.6,14.4-32,32-32s32,14.4,32,32,.9,2,2,2,2-.9,2-2c0-16.3-10.9-30.1-25.8-34.5ZM18,22c0-9.9,8.1-18,18-18s18,8.1,18,18-8.1,18-18,18-18-8.1-18-18Z"/>
</svg>