<?xml version="1.0" encoding="UTF-8"?>
<svg id="Layer_1" xmlns="http://www.w3.org/2000/svg" version="1.1" viewBox="0 0 100 99.8">
  <!-- Generator: Adobe Illustrator 30.6.0, SVG Export Plug-In . SVG Version: 2.1.4 Build 109)  -->
  <defs>
    <style>
      .st0 {
        fill: #1d4ed8;
      }
    </style>
  </defs>
  <path class="st0" d="M82.5,0c-2,0-4.2,0-6.5.3-12.3,1-28.1,5.5-41.7,19.1-1.1,1.1-2.1,2.2-3.1,3.4l-6.4-1.6c-4.2-1-8.7.7-11,4.4L.4,46.3H.4c-.3.5-.3,1.1,0,1.6.3.5.8.8,1.3.8l17,.5c-1.1,4.6-1.7,9.1-2.1,13.2h0c0,.5.1.9.4,1.3l19.2,19.2h0c.3.3.8.5,1.3.4,4.1-.4,8.6-1.1,13.2-2.1l.5,17.1c0,.6.3,1.1.8,1.3.5.3,1.1.2,1.6,0l20.7-13.2c3.7-2.4,5.5-6.8,4.4-11l-1.6-6.4c1.2-1,2.3-2,3.4-3.1,3.8-3.8,6.9-7.8,9.5-11.9,14.9-23.8,8.8-48.8,8.3-50.9h0c0-.6-.5-1.1-1.1-1.3,0,0-5.9-1.6-14.7-1.6h0v-.2ZM82.4,3.1c6.5,0,11.3.9,13.1,1.3,1,4.5,5.1,26.6-8.1,47.7-2.4,3.8-5.4,7.6-9,11.3-7.7,7.7-17.8,12-27.5,14.4-3.4-5.7-7.7-11.2-12.6-16.2-5-5-10.5-9.3-16.2-12.6,2.4-9.7,6.7-19.8,14.4-27.5C51.9,6.1,70.1,3,82.4,3.1h0ZM68.3,13.5c-4.6,0-9.2,1.8-12.8,5.3-7,7-7,18.5,0,25.5s18.5,7,25.5,0,7-18.5,0-25.5-8.1-5.3-12.8-5.3h.1ZM68.3,16.6c3.8,0,7.6,1.5,10.6,4.4,5.8,5.8,5.8,15.3,0,21.1s-15.3,5.9-21.1,0-5.8-15.3,0-21.1c2.9-2.9,6.7-4.4,10.6-4.4h0ZM22.3,24c.6,0,1.1,0,1.7.2l5.1,1.2c-4.6,6.4-7.6,13.6-9.5,20.6l-15-.4,11.7-18.3c1.3-2.1,3.6-3.3,6-3.3h0ZM21.3,52.3c5.2,3.1,10.1,7.1,14.7,11.6,4.5,4.5,8.5,9.5,11.6,14.7-3.4.7-6.6,1.2-9.7,1.5l-18-18c.3-3.1.8-6.4,1.5-9.7h0ZM16.4,67.4h-.3c-3.3,1-6.7,2.6-9.4,5.3C-2.4,81.8.4,98.2.4,98.2H.4v.4H.4c0,0,0,.2,0,.3h.1q0,0,.1.2h.7s16.4,2.8,25.4-6.3c2.7-2.7,4.3-6.1,5.3-9.4.2-.8-.2-1.7-1.1-1.9-.4,0-.8,0-1.2,0s-.6.5-.8.9c-.9,3-2.3,5.9-4.5,8.1-6.2,6.2-17.8,5.8-21.5,5.5-.3-3.7-.7-15.3,5.5-21.5,2.2-2.2,5.1-3.6,8.1-4.5h0c.8-.2,1.3-1.1,1.1-1.9-.2-.7-.9-1.2-1.6-1.1h0l.3.3ZM74.4,70.9l1.2,5.1c.7,3-.5,6-3.1,7.7l-18.3,11.8-.4-15c7.1-1.9,14.2-4.9,20.6-9.5h0Z"/>
</svg>