<?xml version="1.0" encoding="UTF-8"?>
<svg id="Layer_1" xmlns="http://www.w3.org/2000/svg" version="1.1" viewBox="0 0 53.6 56">
  <!-- Generator: Adobe Illustrator 30.6.0, SVG Export Plug-In . SVG Version: 2.1.4 Build 109)  -->
  <defs>
    <style>
      .st0 {
        fill: #1d4ed8;
      }
    </style>
  </defs>
  <path class="st0" d="M50.5,12.1h-5.1c.9-1.6.3-6.2-.5-8.7-2.8-8.1-13.6.7-15.5,2.4-.8-.7-2.8-.3-3.8-.4-.5,0-1,0-1.4.4-1.9-1.7-12.8-10.5-15.5-2.4-.8,2.5-1.5,7.1-.5,8.7H3c-1.7,0-3,1.3-3,3v10.6c0,.6.4,1,1,1h2v26.3c0,1.7,1.3,3,3,3h41.6c1.7,0,3-1.3,3-3v-26.3h2c.6,0,1-.4,1-1v-10.6c0-1.7-1.3-3-3-3h0ZM32,12.1c2.6-2.4,8.8-3.7,11.8-4.2.2,1.7.2,3.8-1.1,4.2h-10.7ZM31,24.7h-8.5v-10.6h8.5v10.6ZM39.6,2c2.7-.7,3.6,1.8,3.9,3.9-2.6.4-9.1,1.6-12.8,4.5,0-1,0-2.1-.1-3.1,2.6-2.3,5.7-4.2,9-5.3ZM25.6,7.3h2.3c.4,0,.8.4.8.8v4h-3.9v-4c0-.4.4-.8.8-.8h0ZM10.6,3.9c.4-1.5,1.9-2.3,3.4-1.9,3.3,1.2,6.4,3,9,5.3-.1,1-.2,2.1-.1,3.1-3.7-3-10.2-4.2-12.8-4.5.1-.7.3-1.3.5-2ZM9.7,7.9c3.1.4,8.9,1.7,11.9,4.2h-10.8c-1.3-.3-1.3-2.5-1.1-4.2ZM2,15.1c0-.6.4-1,1-1h17.5v10.6H2v-9.6ZM5,52.9v-26.3h16.9v27.3H6c-.6,0-1-.4-1-1ZM23.8,53.9v-27.3h5.8v27.3h-5.8ZM48.5,52.9c0,.6-.4,1-1,1h-15.9v-27.3h16.9v26.3ZM51.5,24.7h-18.5v-10.6h17.5c.6,0,1,.4,1,1v9.6Z"/>
</svg>