<?xml version="1.0" encoding="UTF-8"?>
<svg id="Layer_1" xmlns="http://www.w3.org/2000/svg" xmlns:svg="http://www.w3.org/2000/svg" xmlns:sodipodi="http://sodipodi.sourceforge.net/DTD/sodipodi-0.dtd" xmlns:rdf="http://www.w3.org/1999/02/22-rdf-syntax-ns#" xmlns:inkscape="http://www.inkscape.org/namespaces/inkscape" xmlns:dc="http://purl.org/dc/elements/1.1/" xmlns:cc="http://creativecommons.org/ns#" version="1.1" viewBox="0 0 8.5 7">
  <!-- Generator: Adobe Illustrator 30.6.0, SVG Export Plug-In . SVG Version: 2.1.4 Build 109)  -->
  <defs>
    <style>
      .st0 {
        fill: #1d4ed8;
      }
    </style>
  </defs>
  <path class="st0" d="M.3,0c-.2,0-.3.1-.3.3v6.4c0,0,.1.3.3.3h7.9c.1,0,.3,0,.3-.3V.3c0-.2-.2-.3-.3-.3H.3ZM.5.5h7.4v1.4H.5V.5ZM6.4,1c0,0-.3.1-.3.3s0,.3.3.3h.6c0,0,.3-.1.3-.3s0-.3-.3-.3h0s-.6,0-.6,0ZM.5,2.4h7.4v3.9H.5v-3.9ZM4.5,3.2c0,0-.2,0-.2.2l-.5,1.8c0,0,0,.3.2.3s.3,0,.3-.2h0l.5-1.8c0,0,0-.3-.2-.3h-.1ZM3.1,3.2h-.2l-.9.9c-.1,0-.1.3,0,.4h0l.9.9c0,0,.3,0,.4,0s0-.3,0-.4h0l-.7-.7.7-.7c0,0,0-.3,0-.4h-.2ZM5.4,3.2c0,0-.3,0-.3.3v.2l.7.7-.7.7c0,0,0,.3,0,.4s.3,0,.4,0h0l.9-.9c0,0,0-.3,0-.4h0l-.9-.9h-.2,0Z"/>
</svg>